<svg width="18" height="12" viewBox="0 0 18 12" fill="none" xmlns="http://www.w3.org/2000/svg">
<path d="M17.9265 6.34786C17.8997 6.40571 17.264 7.795 15.8598 9.17714C13.981 11.0236 11.613 12 9.00054 12C6.38806 12 4.02013 11.0236 2.1435 9.17714C0.739287 7.795 0.103582 6.40571 0.0745547 6.34786C0.0253915 6.23815 0 6.11955 0 5.99964C0 5.87973 0.0253915 5.76114 0.0745547 5.65143C0.101405 5.59286 0.73711 4.20429 2.14205 2.82214C4.02013 0.975714 6.38806 -9.53674e-07 9.00054 -9.53674e-07C11.613 -9.53674e-07 13.981 0.975714 15.8569 2.82214C17.2618 4.20429 17.8975 5.59286 17.9244 5.65143C17.9739 5.76099 17.9996 5.87951 18 5.99942C18.0004 6.11933 17.9753 6.238 17.9265 6.34786ZM14.584 3.99071C13.0259 2.48071 11.1479 1.71428 9.00054 1.71428C6.85323 1.71428 4.97514 2.48071 3.41926 3.99143C2.80703 4.58769 2.28039 5.26346 1.85395 6C2.28051 6.73624 2.80714 7.41176 3.41926 8.00786C4.97586 9.51929 6.85323 10.2857 9.00054 10.2857C11.1479 10.2857 13.0252 9.51929 14.5818 8.00786C15.194 7.41181 15.7206 6.73629 16.1471 6C15.7206 5.26351 15.194 4.58775 14.5818 3.99143L14.584 3.99071ZM9.00054 9.14286C8.36902 9.14286 7.75168 8.95853 7.22659 8.61319C6.70149 8.26785 6.29223 7.777 6.05056 7.20272C5.80889 6.62844 5.74566 5.99651 5.86886 5.38686C5.99206 4.7772 6.29617 4.2172 6.74272 3.77766C7.18928 3.33813 7.75822 3.0388 8.37761 2.91753C8.997 2.79626 9.63901 2.8585 10.2225 3.09638C10.8059 3.33425 11.3046 3.73708 11.6555 4.25392C12.0063 4.77076 12.1936 5.3784 12.1936 6C12.1926 6.83325 11.8559 7.6321 11.2573 8.22129C10.6587 8.81049 9.84709 9.14191 9.00054 9.14286ZM9.00054 4.57143C8.71349 4.57143 8.43288 4.65521 8.1942 4.81219C7.95552 4.96916 7.76949 5.19227 7.65964 5.45331C7.54979 5.71435 7.52105 6.00158 7.57705 6.2787C7.63305 6.55582 7.77128 6.81036 7.97426 7.01015C8.17724 7.20994 8.43585 7.346 8.71739 7.40112C8.99893 7.45624 9.29076 7.42795 9.55596 7.31983C9.82117 7.2117 10.0478 7.0286 10.2073 6.79367C10.3668 6.55874 10.4519 6.28254 10.4519 6C10.4519 5.62112 10.299 5.25776 10.0268 4.98985C9.75463 4.72194 9.38547 4.57143 9.00054 4.57143Z" fill="#B4B8C4"/>
</svg>
