<svg width="78" height="88" viewBox="0 0 78 88" fill="none" xmlns="http://www.w3.org/2000/svg">
<path d="M2.64408 12.0837L5.02819 4.08544L11.28 0L21.3132 7.04163L27.5649 4.08544L38.5894 2.31844L39.2269 2.21534L39.2473 2.21774L50.1856 4.43309L56.4351 7.38928L67.049 0.261334L72.7246 4.34677L75.356 12.17L75.027 21.2975L70.0093 29.1255L74.5325 41.4682L70.4199 61.2001L39.4106 82.5L8.56465 61.1114L4.45201 41.3795L8.97523 29.0344L3.9575 21.2064L2.64408 12.0837ZM33.4061 73.8089L38.5872 74.9381L43.6866 74.0678L48.7043 68.5918L45.2495 70.1526L40.7263 69.896L38.5872 68.5055L36.3664 69.6347L31.8386 69.896L28.3838 68.3304L33.4061 73.8089ZM31.8409 68.4191L38.0949 67.0597V65.2304L31.5982 63.6336L29.4568 58.8529L31.5982 60.9388L33.9823 60.4377L38.5872 60.5048H43.1104L45.4945 61.2001L47.6336 59.1142L45.4945 63.8949L38.9978 65.2855V67.1101L45.2495 68.6781L48.7043 68.2441L51.5013 61.3727L51.7485 56.592L47.2253 47.1168L43.3599 44.8559L38.3422 44.1606L33.819 44.8559L29.7063 46.9418L25.0969 56.3306L25.3441 61.1114L28.1411 67.978L31.8409 68.4191ZM6.09888 42.0772L10.6221 59.7232L23.6179 67.9804L27.4833 69.3734L24.6863 61.3727V55.8967H19.5052L15.6399 52.2452L15.3926 44.2469L17.7767 41.7271L22.9578 34.1652L28.7967 36.4261L29.704 36.8601L30.3619 45.2923L34.2273 43.9017L38.7505 43.4677L43.7682 43.9017L47.4703 45.2923L48.1281 36.5987L49.0332 36.1648L54.8721 33.9039L60.0532 41.4658L62.4373 44.2469L62.1901 52.2452L58.3247 55.8967H53.1436V61.3727L50.3466 69.3734L54.212 67.9804L67.2101 59.7232L71.7333 42.0772L67.6184 30.4298L55.2805 9.38884L49.6049 6.17132L39.2427 3.80253L27.8848 6.02746L22.5426 9.38884L10.2047 30.4298L6.09888 42.0772Z" fill="white"/>
</svg>
