<svg width="16" height="16" viewBox="0 0 16 16" fill="none" xmlns="http://www.w3.org/2000/svg">
<path d="M8.00004 11.3333V14.6666M3.33337 11.3333H12.6667V10.16C12.6666 9.91192 12.5972 9.66882 12.4665 9.45801C12.3358 9.2472 12.1488 9.07703 11.9267 8.96665L10.74 8.36665C10.5179 8.25626 10.331 8.0861 10.2002 7.87528C10.0695 7.66447 10.0002 7.42137 10 7.17331V3.99998H10.6667C11.0203 3.99998 11.3595 3.8595 11.6095 3.60946C11.8596 3.35941 12 3.02027 12 2.66665C12 2.31302 11.8596 1.97389 11.6095 1.72384C11.3595 1.47379 11.0203 1.33331 10.6667 1.33331H5.33337C4.97975 1.33331 4.64061 1.47379 4.39056 1.72384C4.14052 1.97389 4.00004 2.31302 4.00004 2.66665C4.00004 3.02027 4.14052 3.35941 4.39056 3.60946C4.64061 3.8595 4.97975 3.99998 5.33337 3.99998H6.00004V7.17331C5.99991 7.42137 5.93058 7.66447 5.79985 7.87528C5.66913 8.0861 5.48218 8.25626 5.26004 8.36665L4.07337 8.96665C3.85123 9.07703 3.66429 9.2472 3.53356 9.45801C3.40283 9.66882 3.33351 9.91192 3.33337 10.16V11.3333Z" stroke="#926FFB" stroke-width="2" stroke-linecap="round" stroke-linejoin="round"/>
</svg>
